PathFileType	4	(X/Y/Z)	E:\Marcel_BSc\Ayumi_22_01_2025\22-01-2025\sumo_dl_3.trc
DataRate	CameraRate	NumFrames	NumMarkers	Units	OrigDataRate	OrigDataStartFrame	OrigNumFrames
200.0	200.0	4	47	mm	200.0	585	2336	
Frame#	Time	FHD			LBHD			RBHD			RBAR			LBAR			RSACR			LSACR			USACR			C7			CLAV			T10			RSHO			LSHO			LTHI1			LTHI3			LTHI2			LTIB1			LTIB2			LTIB3			LMMAL			LLMAL			LHEE			LMT1			LMT5			LMT3			RTHI1			RTHI2			RTHI3			RTIB1			RTIB3			RTIB2			RLMAL			RMMAL			RHEE			RMT5			RMT1			RMT3			LDUPA			LMUPA			LUUPA			LRAD			RUL			RUFIN			RRAD			RMUPA			RDUPA			RUUPA			
		X1	Y1	Z1	X2	Y2	Z2	X3	Y3	Z3	X4	Y4	Z4	X5	Y5	Z5	X6	Y6	Z6	X7	Y7	Z7	X8	Y8	Z8	X9	Y9	Z9	X10	Y10	Z10	X11	Y11	Z11	X12	Y12	Z12	X13	Y13	Z13	X14	Y14	Z14	X15	Y15	Z15	X16	Y16	Z16	X17	Y17	Z17	X18	Y18	Z18	X19	Y19	Z19	X20	Y20	Z20	X21	Y21	Z21	X22	Y22	Z22	X23	Y23	Z23	X24	Y24	Z24	X25	Y25	Z25	X26	Y26	Z26	X27	Y27	Z27	X28	Y28	Z28	X29	Y29	Z29	X30	Y30	Z30	X31	Y31	Z31	X32	Y32	Z32	X33	Y33	Z33	X34	Y34	Z34	X35	Y35	Z35	X36	Y36	Z36	X37	Y37	Z37	X38	Y38	Z38	X39	Y39	Z39	X40	Y40	Z40	X41	Y41	Z41	X42	Y42	Z42	X43	Y43	Z43	X44	Y44	Z44	X45	Y45	Z45	X46	Y46	Z46	X47	Y47	Z47	
585	2.915	-182.31458	821.18518	-970.30444	-161.99394	838.33112	-911.55109	-142.43468	846.18231	-1041.7906	227.51967	237.05261	-2082.3701	230.67511	249.65472	137.89207	485.76544	701.17078	-1032.3973	490.69669	703.35248	-961.64276	477.35193	708.02814	-994.9101	75.700745	929.92798	-974.26788	72.04715	767.39667	-979.93182	340.36243	813.29456	-993.28015	32.062897	784.41644	-1120.0266	60.942833	789.60657	-820.83435	400.0614	507.21158	-670.21661	359.1431	464.53464	-641.1535	342.7847	512.3866	-636.34814	295.53421	243.55153	-524.55957	337.37027	241.01845	-552.6236	317.57217	182.2579	-531.5058	281.98645	72.398323	-586.50104	334.94797	72.984482	-532.85522	345.495	34.057243	-588.83997	183.18901	45.231392	-481.96683				201.50916	42.187317	-452.49158	391.84467	495.51407	-1311.8961	335.83374	502.71213	-1346.5441	350.28012	454.04007	-1340.3018	297.91367	275.69061	-1450.0134	319.44958	214.90199	-1440.115	337.64108	274.63828	-1418.6979	347.414	76.085999	-1435.1924	274.79092	71.751488	-1398.65	354.06076	30.421509	-1379.0411	265.40247	25.590162	-1546.968	207.9147	35.760963	-1511.5768	229.55173	33.552876	-1534.7086	214.63431	639.56543	-763.19891	166.49402	627.18274	-764.35724	150.45062	686.71747	-762.64594	255.70578	325.8735	-710.30383	168.18031	307.5809	-1258.1155	184.44913	233.21544	-1195.5876	175.56873	300.70129	-1195.8531	87.954788	698.4823	-1205.7375	106.5517	639.75134	-1221.5729	131.1973	715.00427	-1224.2667
586	2.92	-182.45224	820.41034	-970.21094	-162.05452	837.5368	-911.46185	-142.58871	845.5163	-1041.6776	227.46046	236.99274	-2082.2827	230.60884	249.63721	137.88992	485.83102	700.82281	-1032.2921	490.66574	703.13519	-961.50684	477.39734	707.94501	-994.78284	75.499275	929.40747	-974.16901	72.016121	766.90637	-979.92993	340.26175	813.66943	-992.82538	32.068127	783.84857	-1120.0001	60.672775	788.96448	-820.63422	400.03256	507.12024	-670.16968	358.99307	464.38956	-641.13806	342.69693	512.29828	-636.36926	295.46841	243.55315	-524.52277	337.32419	240.94876	-552.58246	317.49014	182.50038	-531.38239	281.98901	72.408936	-586.55524	334.91461	73.010017	-532.87897	345.47122	34.063026	-588.84192	183.16615	45.233582	-481.978				201.50545	42.174404	-452.48425	391.86206	495.33636	-1311.8453	335.862	502.63333	-1346.4431	350.28259	453.92688	-1340.2327	297.93207	275.66971	-1449.9718	319.43936	214.88219	-1440.0808	337.63608	274.60754	-1418.693	347.41223	76.084633	-1435.1907	274.81677	71.734741	-1398.6433	354.05447	30.390335	-1379.0513	265.41959	25.597324	-1546.9733	207.90274	35.744911	-1511.5907	229.54057	33.550671	-1534.7167	214.47827	638.76147	-763.14331	166.26653	626.46143	-764.24298	150.22862	685.95508	-762.56207	255.64804	325.28018	-710.02704	168.42114	307.30722	-1258.2356	184.70709	233.01117	-1195.4813	176.1066	300.43573	-1195.9546	88.050537	697.91412	-1205.6589	106.72713	639.16394	-1221.557	131.23286	714.53723	-1224.2351
587	2.925	-182.56425	819.61493	-970.19189	-162.23944	836.7843	-911.43054	-142.71458	844.77161	-1041.6472	227.3968	237.0041	-2082.2834	230.55612	249.64105	137.8968	485.93472	700.46234	-1032.1901	490.66528	702.80414	-961.42963	477.35742	707.44025	-994.75861	75.306229	928.67584	-974.10291	71.765091	765.91827	-979.8736	340.18896	812.55469	-993.17084	32.003048	783.39032	-1119.9608	60.760899	788.16504	-820.87842	399.909	506.99365	-670.12067	358.88583	464.28574	-641.09979	342.58929	512.20532	-636.36304	295.36945	243.53418	-524.51318	337.20724	240.97493	-552.53851	317.48764	182.41821	-531.36987	281.95605	72.381645	-586.55713	334.884	73.014755	-532.89081	345.4491	34.078003	-588.84308	183.14569	45.221207	-481.98993				201.51561	42.146431	-452.46695	391.90488	495.24719	-1311.7473	335.95206	502.4299	-1346.4078	350.29111	453.85321	-1340.178	297.85901	275.6004	-1449.9441	319.40799	214.85083	-1440.0841	337.62692	274.60318	-1418.6434	347.37665	76.121933	-1435.1902	274.80008	71.723083	-1398.6453	354.04291	30.407734	-1379.0483	265.41373	25.576302	-1546.9764	207.87918	35.78138	-1511.5895	229.5585	33.558712	-1534.715	214.29118	638.0542	-763.07129	166.08252	625.73572	-764.07764	150.1543	685.32172	-762.45496	255.61679	324.6337	-709.75372	168.75037	306.9151	-1258.3591	184.91379	232.84682	-1195.3928	176.54771	300.14539	-1196.0747	88.12632	697.45752	-1205.6755	106.83172	638.79303	-1221.511	131.40286	713.94086	-1224.2463
588	2.93	-182.66696	818.8963	-970.10858	-162.24022	836.10535	-911.29437	-142.80669	843.97626	-1041.6149	227.33179	236.97484	-2082.2361	230.49678	249.64787	137.89798	485.97964	700.0968	-1032.1178	490.66876	702.52667	-961.34271	477.38922	707.12915	-994.65076	75.125549	928.24091	-973.96234	71.987076	765.74994	-979.94019	340.1431	812.9812	-992.77869	31.830412	783.08893	-1119.9132	60.567047	787.57434	-820.73566	399.84146	506.92456	-670.10724	358.77905	464.2142	-641.04803	342.50894	512.1347	-636.34406	295.30856	243.48563	-524.47333	337.09436	241.01183	-552.47296	317.50592	182.2363	-531.40363	281.94418	72.372246	-586.57892	334.88361	73.007095	-532.89972	345.38602	34.126728	-588.87048	183.15894	45.215492	-481.99146				201.47414	42.167057	-452.47144	391.92612	495.19498	-1311.6511	335.97473	502.31302	-1346.3378	350.31845	453.75705	-1340.1086	297.8569	275.59509	-1449.9274	319.38885	214.8629	-1440.0726	337.63806	274.57996	-1418.6227	347.39658	76.110825	-1435.1842	274.8118	71.687698	-1398.6381	354.03693	30.422201	-1379.0675	265.41635	25.597555	-1546.9912	207.88438	35.759274	-1511.5994	229.54507	33.544979	-1534.7227	214.05888	637.28809	-763.02136	165.87981	625.09955	-763.94519	149.95758	684.56787	-762.36493	255.55229	324.02103	-709.47449	168.96469	306.70001	-1258.4171	185.11598	232.66367	-1195.2487	176.95599	299.90491	-1196.1946	88.30938	697.02325	-1205.6608	107.03967	638.33264	-1221.5127	131.55502	713.55847	-1224.1982
